<?xml version="1.0" encoding="UTF-8" standalone="no"?>
<!-- Created with Inkscape (http://www.inkscape.org/) -->

<svg
   xmlns:dc="http://purl.org/dc/elements/1.1/"
   xmlns:cc="http://creativecommons.org/ns#"
   xmlns:rdf="http://www.w3.org/1999/02/22-rdf-syntax-ns#"
   xmlns:svg="http://www.w3.org/2000/svg"
   xmlns="http://www.w3.org/2000/svg"
   xmlns:sodipodi="http://sodipodi.sourceforge.net/DTD/sodipodi-0.dtd"
   xmlns:inkscape="http://www.inkscape.org/namespaces/inkscape"
   width="210mm"
   height="297mm"
   viewBox="0 0 744.09448819 1052.3622047"
   id="svg2"
   version="1.1"
   inkscape:version="0.91 r13725"
   sodipodi:docname="DefiWebsocketServer_Icon.svg">
  <defs
     id="defs4">
    <filter
       inkscape:menu-tooltip="Pressed metal with a rolled edge"
       inkscape:menu="Bevels"
       inkscape:label="Pressed Steel"
       style="color-interpolation-filters:sRGB;"
       id="filter3557">
      <feGaussianBlur
         result="result1"
         stdDeviation="3"
         id="feGaussianBlur3559" />
      <feBlend
         in2="result1"
         result="result5"
         mode="multiply"
         in="result1"
         id="feBlend3561" />
      <feGaussianBlur
         in="result5"
         result="result6"
         stdDeviation="1"
         id="feGaussianBlur3563" />
      <feComposite
         result="result8"
         in2="result5"
         in="result6"
         operator="xor"
         id="feComposite3565" />
      <feComposite
         in="result6"
         result="fbSourceGraphic"
         operator="xor"
         in2="result8"
         id="feComposite3567" />
      <feSpecularLighting
         in="fbSourceGraphic"
         result="result1"
         lighting-color="rgb(255,255,255)"
         surfaceScale="2"
         specularConstant="2.2"
         specularExponent="55"
         id="feSpecularLighting3569">
        <fePointLight
           x="-5000"
           y="-10000"
           z="20000"
           id="fePointLight3571" />
      </feSpecularLighting>
      <feComposite
         in2="fbSourceGraphic"
         in="result1"
         result="result2"
         operator="in"
         id="feComposite3573" />
      <feComposite
         in="fbSourceGraphic"
         result="result4"
         operator="arithmetic"
         k2="2"
         k3="1"
         in2="result2"
         id="feComposite3575" />
      <feComposite
         in2="result4"
         in="result4"
         operator="in"
         result="result91"
         id="feComposite3577" />
      <feBlend
         mode="darken"
         in2="result91"
         id="feBlend3579" />
    </filter>
    <filter
       inkscape:label="Stained Glass"
       inkscape:menu="Bevels"
       inkscape:menu-tooltip="Illuminated stained glass effect"
       height="1.5"
       width="1.5"
       y="-0.25"
       x="-0.25"
       style="color-interpolation-filters:sRGB;"
       id="filter4214">
      <feBlend
         in2="SourceGraphic"
         result="result1"
         mode="screen"
         id="feBlend4216" />
      <feGaussianBlur
         stdDeviation="7"
         result="result6"
         id="feGaussianBlur4218" />
      <feComposite
         operator="xor"
         in="result6"
         in2="result6"
         result="result7"
         id="feComposite4220" />
      <feComposite
         in2="result1"
         operator="atop"
         in="result6"
         result="result92"
         id="feComposite4222" />
      <feComposite
         result="result4"
         in="result7"
         operator="xor"
         in2="result92"
         id="feComposite4224" />
      <feGaussianBlur
         result="result3"
         stdDeviation="0.7"
         in="result4"
         id="feGaussianBlur4226" />
      <feSpecularLighting
         result="result5"
         specularExponent="50"
         specularConstant="1.5"
         surfaceScale="4"
         id="feSpecularLighting4228">
        <fePointLight
           z="20000"
           y="-8000"
           x="-5000"
           id="fePointLight4230" />
      </feSpecularLighting>
      <feComposite
         in="result3"
         k3="1"
         k2="1"
         operator="arithmetic"
         in2="SourceGraphic"
         result="result93"
         id="feComposite4232" />
      <feComposite
         in="result5"
         operator="atop"
         in2="result93"
         result="result94"
         id="feComposite4234" />
      <feBlend
         mode="multiply"
         in2="result94"
         id="feBlend4236" />
    </filter>
  </defs>
  <sodipodi:namedview
     id="base"
     pagecolor="#ffffff"
     bordercolor="#666666"
     borderopacity="1.0"
     inkscape:pageopacity="0.0"
     inkscape:pageshadow="2"
     inkscape:zoom="0.175"
     inkscape:cx="-825.72685"
     inkscape:cy="475.11629"
     inkscape:document-units="px"
     inkscape:current-layer="layer1"
     showgrid="false"
     inkscape:window-width="1366"
     inkscape:window-height="705"
     inkscape:window-x="-8"
     inkscape:window-y="-8"
     inkscape:window-maximized="1" />
  <metadata
     id="metadata7">
    <rdf:RDF>
      <cc:Work
         rdf:about="">
        <dc:format>image/svg+xml</dc:format>
        <dc:type
           rdf:resource="http://purl.org/dc/dcmitype/StillImage" />
        <dc:title />
      </cc:Work>
    </rdf:RDF>
  </metadata>
  <g
     inkscape:label="レイヤー 1"
     inkscape:groupmode="layer"
     id="layer1">
    <rect
       style="fill:#000000;stroke:#ffffff;filter:url(#filter3557)"
       id="rect3555"
       width="194.28572"
       height="172.14285"
       x="133.57143"
       y="174.50507"
       transform="matrix(2.9921645,0,0,3.3092399,-293.44136,-395.29826)" />
    <path
       style="fill:#ffffff"
       d="m 139.13706,277.29849 c -0.6293,0 -1.1028,0.0672 -1.4667,0.31265 l 0,18.4496 c 0.5511,0.21549 1.4443,0.18857 2.2471,-0.11948 1.3213,-0.50707 1.8225,-3.1764 1.8225,-9.67218 0,-8.10351 -0.2517,-8.97059 -2.6029,-8.97059 z m 19.5222,0 c -2.355,0 -2.603,0.86765 -2.603,9.11039 0,8.24275 0.248,9.11041 2.603,9.11041 2.355,0 2.603,-0.86766 2.603,-9.11041 0,-8.24274 -0.248,-9.11039 -2.603,-9.11039 z m 20.252,0.26691 c -2.0134,0.29158 -3.2918,5.75092 -3.3173,14.37481 -0.012,3.95715 0.4617,4.88056 2.4962,4.88056 2.0581,0 2.6648,-1.25781 3.3808,-6.98786 1.0803,-8.64673 0.5379,-11.73759 -2.1479,-12.25482 -0.1407,-0.0271 -0.2777,-0.0322 -0.4118,-0.0127 z m 20.2772,2.33605 c -1.9494,0 -2.5829,1.33222 -3.2435,6.8328 -0.4515,3.75805 -0.8313,7.85774 -0.8313,9.11041 -0.018,3.40804 4.7345,2.86333 5.6762,-0.65074 0.4316,-1.61059 0.7878,-5.71026 0.8008,-9.1104 0.015,-5.16652 -0.3783,-6.18207 -2.4022,-6.18207 z m 14.9187,1.30149 c -3.7519,0 -3.8306,0.29264 -5.9406,22.12527 -1.0473,10.83842 -2.9289,35.69229 -2.9562,39.04461 -0.022,2.85329 0.6883,3.79606 3.2308,4.28576 5.5693,1.07269 6.1364,0.90768 6.8253,-2.00816 8.8992,-37.66853 13.6731,-58.39124 13.6731,-59.34476 0,-1.35747 -9.9242,-4.10272 -14.8324,-4.10272 z m 25.7909,4.4586 c -0.4221,-0.002 -0.9278,0.17696 -1.5177,0.54145 -1.4196,0.87745 -4.2349,11.94451 -4.2349,16.64987 0,0.97603 1.1051,1.77684 2.4557,1.77684 1.9936,0 2.7616,-1.61072 4.0722,-8.55626 1.31,-6.94417 1.0535,-10.40162 -0.7753,-10.4119 z m 18.7877,4.87805 c -1.6819,0.10793 -2.3711,1.83467 -3.9223,8.50287 -1.4927,6.41756 -1.658,9.10255 -0.6,9.79673 2.628,1.72397 3.2038,1.0764 5.1756,-5.83635 3.0921,-10.83973 3.1036,-11.99506 0.1347,-12.42005 -0.2862,-0.041 -0.5478,-0.0586 -0.788,-0.0432 z m 19.9213,5.63045 c -2.0623,0 -7.2796,14.22285 -6.2253,16.97015 1.2535,3.26646 3.4636,2.09376 5.6127,-2.97918 2.6441,-6.24223 2.9832,-13.99097 0.6126,-13.99097 z m 18.8819,6.13885 c -0.2168,0.0244 -0.416,0.0873 -0.5873,0.19318 -1.9267,1.19076 -7.1553,16.10317 -6.1922,17.66159 2.0715,3.35185 4.5632,0.88171 7.2497,-7.19122 1.947,-5.85077 2.4295,-8.99933 1.5201,-9.9086 -0.5498,-0.54973 -1.3407,-0.82804 -1.9903,-0.75495 z m 18.4724,6.87855 c -1.87,-0.18863 -3.5498,4.0219 -14.2503,29.68509 -7.3877,17.71771 -7.4549,17.98878 -4.667,19.10797 1.5555,0.62446 3.3197,1.01126 3.9197,0.85917 0.6001,-0.15207 3.1153,-5.23565 5.5897,-11.29904 2.4744,-6.06339 6.5228,-15.81194 8.9961,-21.66263 5.2245,-12.35994 5.4305,-14.14927 1.8505,-16.06524 -0.5649,-0.30228 -1.0073,-0.58177 -1.4387,-0.62532 z m 19.9214,8.40121 c -1.6164,0.0624 -3.8016,3.04345 -6.1695,8.61472 -2.9867,7.02765 -3.3154,8.76253 -1.8352,9.67727 0.9917,0.61294 2.2331,0.84799 2.7579,0.52363 1.8164,-1.12255 7.7118,-15.36484 7.0618,-17.05912 -0.4641,-1.20912 -1.0803,-1.78483 -1.815,-1.7565 z m 18.3809,9.23495 c -1.542,-0.0707 -3.7428,2.52622 -6.6573,7.8318 -3.4405,6.26301 -4.009,8.25362 -2.781,9.7332 0.8487,1.02279 2.0086,1.57273 2.5751,1.22268 2.2071,-1.36415 9.2225,-15.32464 8.5637,-17.04134 -0.4339,-1.13089 -0.9997,-1.71415 -1.7005,-1.74634 z m 17.2065,10.34327 c -2.2207,0 -11.5481,15.10658 -10.4372,16.90408 1.7201,2.78315 4.0897,1.00419 8.8053,-6.6142 4.7937,-7.74455 5.1963,-10.28988 1.6319,-10.28988 z m 16.1111,10.42969 c -1.5154,-0.0382 -10.4215,15.60455 -9.6215,16.899 1.7032,2.75574 4.0869,0.99897 9.0038,-6.632 4.1414,-6.42751 4.7517,-8.13161 3.2537,-9.07991 -1.0143,-0.64199 -2.2008,-1.17668 -2.636,-1.18709 z m 11.9013,8.32239 c -0.7628,-0.0658 -1.2844,0.24949 -1.8378,0.85156 -0.9448,1.02778 -8.0315,12.1201 -15.7475,24.64691 -7.7159,12.52681 -14.8638,24.11902 -15.8847,25.76284 -1.6899,2.72079 -1.5877,3.21292 1.1414,5.4881 1.6488,1.3746 3.5826,2.51945 4.2985,2.54196 1.6347,0.0515 42.2982,-47.72092 42.2982,-49.69291 0,-0.38715 -3.2363,-2.93284 -7.1936,-5.65841 -3.8637,-2.66099 -5.803,-3.83043 -7.0745,-3.94005 z m 21.6348,16.16945 c -1.1865,0.13965 -2.8156,1.88377 -6.4032,6.31171 -4.5468,5.61172 -5.6959,7.87369 -4.6442,9.14091 2.2049,2.6567 3.0279,2.13893 8.8766,-5.60759 4.7559,-6.29922 5.2538,-7.54505 3.6579,-9.1409 -0.4987,-0.49869 -0.9478,-0.7676 -1.4871,-0.70413 z m 15.6687,13.00978 c -1.1936,0.0624 -2.8108,1.70015 -6.5024,5.97617 -6.4029,7.41674 -7.1897,9.21748 -4.4942,10.30513 0.8947,0.36105 1.7296,0.70102 1.8532,0.75751 0.1234,0.0565 3.0013,-3.14721 6.3955,-7.12005 5.4152,-6.33861 5.9383,-7.45779 4.268,-9.12819 -0.5221,-0.52201 -0.9776,-0.8189 -1.5201,-0.79057 z m 15.2289,13.45972 c -1.2455,0.007 -3.3144,1.85377 -7.5801,6.1846 -4.1607,4.22414 -6.0429,7.10651 -5.5236,8.45966 1.2051,3.1407 2.4071,2.57495 9.2322,-4.35437 4.1608,-4.22416 6.0405,-7.10652 5.5213,-8.45968 -0.452,-1.17775 -0.9024,-1.83506 -1.6498,-1.83021 z m 14.3088,14.31381 c -1.2457,0.0199 -3.317,1.86652 -7.5726,6.18714 -4.2636,4.3287 -6.0474,7.09103 -5.5009,8.51559 1.0426,2.71711 3.665,1.28863 10.4476,-5.694 3.1863,-3.28029 4.7594,-5.93748 4.2704,-7.21155 -0.4464,-1.16351 -0.8971,-1.80914 -1.6445,-1.79718 z m -173.2198,14.10284 c -15.6251,0.004 -18.5112,0.34026 -22.2016,2.59026 -6.2061,3.78398 -9.555,9.90917 -9.2553,16.92695 0.1734,4.06042 -0.6108,7.2538 -2.5572,10.41189 -2.8248,4.58349 -3.8333,14.60862 -1.7921,17.81921 0.5424,0.85285 2.7292,2.45768 4.8603,3.5689 2.9421,1.53407 8.1034,2.02329 21.444,2.02849 19.2236,0.007 24.1475,-1.33743 28.9555,-7.90297 3.2931,-4.49661 5.2897,-13.62746 3.6504,-16.69055 -0.9247,-1.7279 -0.5754,-3.73537 1.2836,-7.38187 1.4044,-2.75465 2.5521,-6.88613 2.5521,-9.18159 0,-10.57315 -3.5869,-12.19522 -26.9397,-12.18872 z m 186.2803,0.41688 c -0.6646,-0.21098 -5.0167,2.88599 -9.6697,6.88363 -4.6527,3.99765 -13.2913,11.33922 -19.1968,16.31436 -5.9055,4.97514 -10.7373,9.56168 -10.7373,10.19075 0,0.62904 0.9214,2.06276 2.0462,3.18761 1.125,1.12486 2.2771,2.04629 2.5598,2.04629 0.283,0 3.3468,-2.48909 6.8099,-5.53132 3.4631,-3.04223 9.7514,-8.45966 13.9732,-12.03875 16.5563,-14.03596 18.3198,-15.96709 16.8177,-18.40638 -0.7668,-1.24562 -1.9381,-2.43522 -2.603,-2.64619 z m -100.5422,0.22877 c -19.6605,0 -23.0096,0.96776 -29.3243,8.47236 -6.9789,8.29387 -11.2188,32.2758 -6.7488,38.17528 0.9996,1.31941 4.0565,3.22818 6.792,4.23999 3.495,1.2927 9.6154,1.73809 20.5899,1.5023 24.1518,-0.51885 29.1306,-4.51338 34.0675,-27.33884 2.6266,-12.14451 1.5561,-18.27113 -3.9019,-22.32355 -3.3096,-2.45724 -5.4388,-2.72754 -21.4744,-2.72754 z m -93.0157,8.43425 c 8.75,-0.0987 21.5522,1.08636 22.4251,2.49875 1.3596,2.19982 0.3428,6.09905 -2.1249,8.14701 -1.1747,0.97491 -6.31,1.62516 -13.198,1.67008 -15.6684,0.10208 -19.3954,-0.41063 -20.3079,-2.78855 -1.1001,-2.86708 2.5645,-7.99824 6.3982,-8.96042 1.4241,-0.3574 3.8907,-0.53396 6.8075,-0.56687 z m 90.3796,1.3269 c 14.9212,0 15.4216,0.0914 17.4786,3.23085 1.9575,2.98726 1.9529,3.9672 -0.042,12.92845 -1.1863,5.33251 -3.2964,11.14437 -4.6898,12.91572 -2.734,3.47567 -8.8247,4.45983 -23.3583,3.77481 -11.0288,-0.51981 -12.7113,-1.18244 -13.6274,-5.35337 -1.1533,-5.25066 2.7545,-20.98099 6.0956,-24.5376 2.5875,-2.75418 3.847,-2.95886 18.1421,-2.95886 z m 116.2135,7.24716 c -1.3066,-0.0749 -3.2283,1.17341 -7.6031,4.47638 -6.8778,5.19286 -8.4408,7.51495 -6.4234,9.53239 1.531,1.531 2.5989,0.98228 10.1094,-5.20086 6.4332,-5.29623 7.1335,-6.31095 5.4906,-7.95381 -0.5133,-0.51339 -0.9795,-0.8201 -1.5735,-0.8541 z m -208.7513,12.51918 c 1.5916,0.0186 3.3535,0.065 5.3052,0.13472 16.729,0.59778 18.4093,1.60603 15.4855,9.29597 l -1.2684,3.34014 -17.4633,0 c -18.941,0 -20.2636,-0.52913 -17.7683,-7.09208 1.7297,-4.54959 4.568,-5.80846 15.7093,-5.67875 z m 221.6519,4.16628 c -1.6837,-0.0596 -4.1594,0.83452 -6.6804,2.62077 -9.0036,6.37955 -9.7391,7.13172 -8.9552,9.17396 0.4252,1.10811 1.4019,2.01578 2.1708,2.01578 1.9233,0 15.6026,-10.44351 15.6026,-11.91165 0,-1.22878 -0.8283,-1.85246 -2.1378,-1.89886 z m -172.0938,8.45457 -6.2658,0.39911 c -6.2362,0.39823 -6.2663,0.42358 -6.6728,5.35591 l -0.4092,4.95429 6.2659,-0.39909 c 6.236,-0.39823 6.2662,-0.42357 6.6728,-5.3559 l 0.4091,-4.95432 z m 182.9759,7.9589 c -2.0761,0 -16.5534,8.96591 -16.5534,10.25175 0,0.51747 0.6986,1.63654 1.5507,2.4886 1.1979,1.1979 2.3045,1.05906 4.8806,-0.61262 1.8321,-1.18904 5.227,-3.37953 7.5445,-4.86788 4.1702,-2.67815 5.7969,-7.25985 2.5776,-7.25985 z m 10.3052,17.47349 c -3.1148,0.0173 -15.7448,7.83672 -16.2128,10.267 -0.6329,3.28675 2.8041,2.70509 10.8492,-1.8353 6.779,-3.82582 8.7051,-6.56549 5.8542,-8.32748 -0.1167,-0.0721 -0.283,-0.10534 -0.4906,-0.10425 z m 5.6863,12.17854 c -3.8295,0.89973 -54.647,32.33924 -54.66,33.81325 0,0.90448 0.722,2.84104 1.6167,4.30356 1.0465,1.7103 2.5557,2.44179 4.2299,2.05391 1.4316,-0.3317 15.0386,-5.78226 30.2368,-12.11248 18.8492,-7.8509 27.613,-12.12805 27.5702,-13.45971 -0.1062,-3.28055 -7.3205,-14.99161 -8.9936,-14.59853 z m 12.9412,23.90721 c -1.3584,0.0577 -3.9267,1.18582 -9.4739,3.7011 -6.2912,2.85257 -8.399,4.4252 -7.8496,5.85669 0.9486,2.47216 1.7656,2.44891 8.5791,-0.22878 8.0916,-3.18001 11.3591,-5.55656 10.5465,-7.67419 -0.421,-1.09723 -0.7456,-1.69977 -1.8021,-1.65482 z m 7.031,19.47146 c -1.6065,0.032 -4.2803,0.87667 -8.5436,2.54705 -7.8796,3.08735 -9.4808,4.31163 -8.2511,6.30153 1.1669,1.88806 1.5553,1.84232 10.8796,-1.30656 6.1137,-2.06459 8.0605,-3.3226 8.0605,-5.20596 0,-1.5856 -0.5389,-2.36799 -2.1454,-2.33606 z m 8.2944,18.66566 c -2.9214,-0.20205 -16.2966,4.43294 -17.3666,6.16427 -0.3989,0.64616 -0.4099,2.00132 -0.022,3.0097 0.5795,1.50995 2.2662,1.28826 9.5529,-1.25575 8.3097,-2.90125 11.4385,-5.85571 8.2741,-7.81146 -0.095,-0.0587 -0.2426,-0.0933 -0.4374,-0.10674 z m 5.7653,19.25539 c -1.3987,0.0801 -4.4751,1.04367 -10.9382,2.98682 -6.8567,2.06153 -8.8784,3.96602 -6.6141,6.23036 1.1815,1.18154 1.3258,1.15981 10.1932,-1.59889 6.1284,-1.90663 7.9023,-3.04832 8.2411,-5.30763 0.2381,-1.58693 0.5166,-2.3907 -0.882,-2.31066 z m 5.2212,18.28692 -24.3927,5.60503 c -13.4148,3.0837 -24.8639,6.08109 -25.4427,6.65995 -0.5789,0.57887 -0.7103,2.35959 -0.2923,3.95784 0.418,1.59824 1.7161,2.89809 2.8852,2.88768 2.5937,-0.0226 48.3097,-11.24028 49.1235,-12.054 0.319,-0.31896 0.026,-2.03704 -0.6507,-3.81804 l -1.2303,-3.23846 z m 2.1403,21.9753 c -1.652,0.0183 -4.0304,0.33781 -7.5166,0.96086 -7.5704,1.35289 -9.1536,2.0657 -9.1536,4.12051 0,2.91378 2.1337,3.10025 11.9753,1.04477 7.9481,-1.65999 10.0541,-3.08024 7.8495,-5.28476 -0.5781,-0.57802 -1.5025,-0.85968 -3.1546,-0.84138 z m 4.6848,19.53501 c -1.1125,-0.0249 -2.8142,0.15645 -5.4118,0.47535 -10.2969,1.26407 -13.4827,2.59452 -12.4785,5.21102 0.6755,1.76019 2.0549,1.97529 8.1113,1.26591 10.3016,-1.20665 11.8508,-1.83312 11.8508,-4.78653 0,-1.50934 -0.2175,-2.12429 -2.0718,-2.16575 z m -174.4221,19.48162 c -9.5942,0.01 -19.1157,1.21884 -22.8344,3.14188 -8.1096,4.19362 -13.7511,15.93118 -14.9647,31.13399 -0.6403,8.02223 -0.3903,9.53421 2.0947,12.67171 1.5519,1.95971 4.6887,4.1036 6.9701,4.76364 5.896,1.70589 30.501,1.69239 36.6704,-0.0204 10.4455,-2.89984 17.2255,-15.27935 18.5895,-33.94033 0.6067,-8.30283 0.4541,-8.89774 -3.2056,-12.55731 -3.3445,-3.34456 -5.1437,-3.96209 -13.9146,-4.78397 -3.0019,-0.28132 -6.2072,-0.41255 -9.4054,-0.40928 z m -47.3491,0.13219 c -1.9357,-0.0132 -4.0123,0.30898 -5.2493,0.97102 -4.0557,2.17057 -16.8888,11.96911 -16.8888,12.89541 0,0.45348 0.9233,2.14541 2.0539,3.75955 l 2.0565,2.93598 4.451,-2.75294 c 2.4485,-1.51326 4.4459,-2.26279 4.4459,-1.66753 0,0.59524 -1.468,7.9644 -3.2537,16.37788 -1.7859,8.4135 -3.2461,16.46645 -3.2461,17.89545 0,2.10608 0.8702,2.60043 4.5957,2.60043 2.5278,0 4.8764,-0.73208 5.2188,-1.62685 1.4386,-3.75893 10.7828,-49.78981 10.2212,-50.35128 -0.6751,-0.67517 -2.4697,-1.02384 -4.4051,-1.03712 z m 121.4678,0.81851 c -10.3815,0.0495 -13.1172,0.57289 -17.1811,2.64618 -2.9415,1.50062 -6.2783,4.14594 -7.4125,5.87704 -3.79,5.78407 -7.056,16.22852 -7.8928,25.23156 -0.7991,8.59823 -0.6892,9.06941 3.086,13.29448 3.7161,4.15904 4.4666,4.41721 14.8095,5.08902 5.9922,0.38919 15.1675,0.36184 20.3917,-0.061 10.3475,-0.83754 14.5013,-2.99501 19.2857,-10.02044 3.3873,-4.97367 7.0083,-18.91312 7.0083,-26.98042 0,-12.65691 -4.1399,-14.95725 -27.1506,-15.07387 -1.8214,-0.009 -3.4612,-0.01 -4.9442,-0.002 z m 100.5704,0.14236 c -1.3447,0.0318 -3.0965,0.1333 -5.3763,0.27961 -10.5775,0.67895 -11.7677,1.14947 -10.5924,4.21204 0.8376,2.18279 4.7033,2.50241 14.3368,1.18201 4.8898,-0.67021 6.0397,-1.32085 6.0397,-3.42403 0,-1.8155 -0.3737,-2.34541 -4.4078,-2.24963 z m -177.658,9.10532 c 12.4368,0 14.4927,0.31872 16.7769,2.60297 2.9259,2.92587 3.0911,4.64861 1.2506,13.01487 -2.0449,9.29527 -5.282,15.59948 -8.4139,16.38551 -7.3898,1.85475 -28.9065,1.16102 -31.5305,-1.0168 -3.8181,-3.16867 -0.1249,-24.55923 4.9568,-28.70895 2.2765,-1.85896 5.3929,-2.2776 16.9601,-2.2776 z m 82.7739,0.01 c 15.3224,-0.0485 16.8817,2.86043 14.5858,15.70681 -2.0495,11.46873 -4.8703,16.18824 -10.3305,17.2803 -7.9284,1.58569 -26.7787,0.2928 -29.5758,-2.0285 -3.347,-2.77782 -0.8581,-21.1903 3.6784,-27.20667 2.1189,-2.81004 3.4987,-3.15592 14.2043,-3.56892 2.7796,-0.10728 5.2489,-0.17608 7.4378,-0.18302 z m 95.789,11.30413 c -1.2468,-0.002 -2.8627,0.0575 -4.9568,0.14997 -9.3085,0.41114 -12.0604,1.48963 -10.4501,4.09511 0.5761,0.93192 4.3211,1.32903 10.234,1.08797 8.3308,-0.33963 9.3265,-0.65633 9.3265,-2.98172 0,-1.79506 -0.4134,-2.3454 -4.1536,-2.35133 z m 4.8043,13.11401 -14.6417,0.85663 c -23.854,1.39794 -49.7239,3.50569 -50.3158,4.09766 -0.7395,0.73946 -0.7078,8.2043 0.038,8.95026 0.3248,0.3247 10.527,1.41215 22.6693,2.41741 12.1424,1.00529 26.6159,1.91159 32.1636,2.01324 l 10.0865,0.18556 0,-9.26039 0,-9.26037 z m -152.3705,9.10277 c -3.3944,0.0168 -3.4078,0.50793 -4.4103,5.18816 l -0.9076,4.22983 6.4719,0 c 6.6924,0 8.053,-1.11677 8.053,-6.61419 0,-2.58316 -0.38,-2.72302 -7.5344,-2.79108 -0.6357,-0.007 -1.1879,-0.0151 -1.6726,-0.0127 z"
       id="path3638"
       inkscape:connector-curvature="0" />
    <g
       transform="matrix(0.49236958,0,0,0.49236958,445.93506,207.09805)"
       id="g4181">
      <polygon
         style="fill:#e44d26"
         id="polygon6"
         points="437.367,100.62 404.321,470.819 255.778,512 107.644,470.877 74.633,100.62 " />
      <polygon
         style="fill:#f16529"
         id="polygon8"
         points="256,480.523 376.03,447.246 404.27,130.894 256,130.894 " />
      <polygon
         style="fill:#ebebeb"
         id="polygon10"
         points="191.76,221.716 256,221.716 256,176.305 255.843,176.305 142.132,176.305 143.219,188.488 154.38,313.627 256,313.627 256,268.217 195.91,268.217 " />
      <polygon
         style="fill:#ebebeb"
         id="polygon12"
         points="201.994,336.333 177.419,336.333 156.409,336.333 162.771,407.634 255.791,433.457 256,433.399 256,386.153 255.801,386.206 205.227,372.55 " />
      <path
         inkscape:connector-curvature="0"
         id="path14"
         d="m 108.382,0 23.077,0 0,22.8 21.11,0 0,-22.8 23.078,0 0,69.044 -23.077,0 0,-23.12 -21.11,0 0,23.12 -23.077,0 0,-69.044 z"
         style="fill:#ffffff" />
      <path
         inkscape:connector-curvature="0"
         id="path16"
         d="m 205.994,22.896 -20.316,0 0,-22.896 63.72,0 0,22.896 -20.325,0 0,46.148 -23.078,0 0,-46.148 z"
         style="fill:#ffffff" />
      <path
         inkscape:connector-curvature="0"
         id="path18"
         d="m 259.511,0 24.063,0 14.802,24.26 14.787,-24.26 24.072,0 0,69.044 -22.982,0 0,-34.222 -15.877,24.549 -0.397,0 -15.888,-24.549 0,34.222 -22.58,0 0,-69.044 z"
         style="fill:#ffffff" />
      <path
         inkscape:connector-curvature="0"
         id="path20"
         d="m 348.72,0 23.084,0 0,46.222 32.453,0 0,22.822 -55.537,0 0,-69.044 z"
         style="fill:#ffffff" />
      <polygon
         style="fill:#ffffff"
         id="polygon22"
         points="255.843,313.627 311.761,313.627 306.49,372.521 255.843,386.191 255.843,433.435 348.937,407.634 349.62,399.962 360.291,280.411 361.399,268.217 349.162,268.217 255.843,268.217 " />
      <polygon
         style="fill:#ffffff"
         id="polygon24"
         points="255.843,221.605 255.843,221.716 365.385,221.716 365.385,221.716 365.531,221.716 366.442,211.509 368.511,188.488 369.597,176.305 255.843,176.305 255.843,204.509 " />
    </g>
    <circle
       style="fill:#000000;fill-opacity:1;stroke:#000000;filter:url(#filter4214)"
       id="path4158"
       cx="387.89859"
       cy="1185.7024"
       r="359.61432" />
    <path
       style="fill:#ffffff"
       d="m 255.0218,885.65375 c -0.6293,0 -1.1028,0.0672 -1.4667,0.31265 l 0,18.44962 c 0.5511,0.2155 1.4443,0.1886 2.2471,-0.1195 1.3213,-0.5071 1.8225,-3.1764 1.8225,-9.6722 0,-8.10349 -0.2517,-8.97057 -2.6029,-8.97057 z m 19.5222,0 c -2.355,0 -2.603,0.86765 -2.603,9.11037 0,8.2428 0.248,9.1104 2.603,9.1104 2.355,0 2.603,-0.8676 2.603,-9.1104 0,-8.24272 -0.248,-9.11037 -2.603,-9.11037 z m 20.252,0.26691 c -2.0134,0.29158 -3.2918,5.75096 -3.3173,14.37486 -0.012,3.9571 0.4617,4.8805 2.4962,4.8805 2.0581,0 2.6648,-1.2578 3.3808,-6.9878 1.0803,-8.64678 0.5379,-11.73764 -2.1479,-12.25487 -0.1407,-0.0271 -0.2777,-0.0322 -0.4118,-0.0127 z m 20.2772,2.33605 c -1.9494,0 -2.5829,1.33222 -3.2435,6.83281 -0.4515,3.758 -0.8313,7.8577 -0.8313,9.1104 -0.018,3.408 4.7345,2.8633 5.6762,-0.6507 0.4316,-1.6106 0.7878,-5.7103 0.8008,-9.1104 0.015,-5.16656 -0.3783,-6.18211 -2.4022,-6.18211 z m 14.9187,1.30149 c -3.7519,0 -3.8306,0.29264 -5.9406,22.12532 -1.0473,10.8384 -2.9289,35.6922 -2.9562,39.0446 -0.022,2.8533 0.6883,3.796 3.2308,4.2857 5.5693,1.0727 6.1364,0.9077 6.8253,-2.0081 8.8992,-37.6686 13.6731,-58.3913 13.6731,-59.3448 0,-1.3575 -9.9242,-4.10272 -14.8324,-4.10272 z m 25.7909,4.45862 c -0.4221,0 -0.9278,0.1769 -1.5177,0.5414 -1.4196,0.8775 -4.2349,11.9445 -4.2349,16.6499 0,0.976 1.1051,1.7768 2.4557,1.7768 1.9936,0 2.7616,-1.6107 4.0722,-8.5562 1.31,-6.9442 1.0535,-10.4016 -0.7753,-10.4119 z m 18.7877,4.878 c -1.6819,0.108 -2.3711,1.8347 -3.9223,8.5029 -1.4927,6.4176 -1.658,9.1026 -0.6,9.7967 2.628,1.724 3.2038,1.0764 5.1756,-5.8363 3.0921,-10.8397 3.1036,-11.9951 0.1347,-12.4201 -0.2862,-0.041 -0.5478,-0.059 -0.788,-0.043 z m 19.9213,5.6305 c -2.0623,0 -7.2796,14.2228 -6.2253,16.9701 1.2535,3.2665 3.4636,2.0938 5.6127,-2.9791 2.6441,-6.2423 2.9832,-13.991 0.6126,-13.991 z m 18.8819,6.1388 c -0.2168,0.024 -0.416,0.087 -0.5873,0.1932 -1.9267,1.1908 -7.1553,16.1032 -6.1922,17.6616 2.0715,3.3519 4.5632,0.8817 7.2497,-7.1912 1.947,-5.8508 2.4295,-8.9993 1.5201,-9.9086 -0.5498,-0.5497 -1.3407,-0.8281 -1.9903,-0.755 z m 18.4724,6.8786 c -1.87,-0.1886 -3.5498,4.0219 -14.2503,29.6851 -7.3877,17.7177 -7.4549,17.9888 -4.667,19.1079 1.5555,0.6245 3.3197,1.0113 3.9197,0.8592 0.6001,-0.1521 3.1153,-5.2356 5.5897,-11.299 2.4744,-6.0634 6.5228,-15.812 8.9961,-21.6627 5.2245,-12.3599 5.4305,-14.1492 1.8505,-16.0652 -0.5649,-0.3023 -1.0073,-0.5818 -1.4387,-0.6253 z m 19.9214,8.4012 c -1.6164,0.062 -3.8016,3.0434 -6.1695,8.6147 -2.9867,7.0277 -3.3154,8.7625 -1.8352,9.6773 0.9917,0.6129 2.2331,0.848 2.7579,0.5236 1.8164,-1.1225 7.7118,-15.3648 7.0618,-17.0591 -0.4641,-1.2091 -1.0803,-1.7848 -1.815,-1.7565 z m 18.3809,9.2349 c -1.542,-0.071 -3.7428,2.5263 -6.6573,7.8318 -3.4405,6.2631 -4.009,8.2537 -2.781,9.7332 0.8487,1.0228 2.0086,1.5728 2.5751,1.2227 2.2071,-1.3641 9.2225,-15.3246 8.5637,-17.0413 -0.4339,-1.1309 -0.9997,-1.7142 -1.7005,-1.7464 z m 17.2065,10.3433 c -2.2207,0 -11.5481,15.1066 -10.4372,16.9041 1.7201,2.7831 4.0897,1.0042 8.8053,-6.6142 4.7937,-7.7446 5.1963,-10.2899 1.6319,-10.2899 z m 16.1111,10.4297 c -1.5154,-0.038 -10.4215,15.6046 -9.6215,16.899 1.7032,2.7557 4.0869,0.999 9.0038,-6.632 4.1414,-6.4275 4.7517,-8.1316 3.2537,-9.0799 -1.0143,-0.642 -2.2008,-1.1767 -2.636,-1.1871 z m 11.9013,8.3224 c -0.7628,-0.066 -1.2844,0.2495 -1.8378,0.8516 -0.9448,1.0277 -8.0315,12.1201 -15.7475,24.6469 -7.7159,12.52678 -14.8638,24.11898 -15.8847,25.76278 -1.6899,2.7208 -1.5877,3.2129 1.1414,5.4881 1.6488,1.3746 3.5826,2.5195 4.2985,2.542 1.6347,0.052 42.2982,-47.72098 42.2982,-49.69288 0,-0.3872 -3.2363,-2.9329 -7.1936,-5.6585 -3.8637,-2.6609 -5.803,-3.8304 -7.0745,-3.94 z m 21.6348,16.1694 c -1.1865,0.1397 -2.8156,1.8838 -6.4032,6.3118 -4.5468,5.6117 -5.6959,7.8736 -4.6442,9.1409 2.2049,2.65668 3.0279,2.13888 8.8766,-5.6076 4.7559,-6.2992 5.2538,-7.5451 3.6579,-9.1409 -0.4987,-0.4987 -0.9478,-0.7676 -1.4871,-0.7042 z m 15.6687,13.0098 c -1.1936,0.062 -2.8108,1.7002 -6.5024,5.97618 -6.4029,7.4167 -7.1897,9.2175 -4.4942,10.3051 0.8947,0.3611 1.7296,0.701 1.8532,0.7575 0.1234,0.056 3.0013,-3.1472 6.3955,-7.12 5.4152,-6.33858 5.9383,-7.45778 4.268,-9.12818 -0.5221,-0.522 -0.9776,-0.8189 -1.5201,-0.7906 z m 15.2289,13.45968 c -1.2455,0.01 -3.3144,1.8538 -7.5801,6.1846 -4.1607,4.2242 -6.0429,7.1066 -5.5236,8.4597 1.2051,3.1407 2.4071,2.575 9.2322,-4.3544 4.1608,-4.2241 6.0405,-7.1065 5.5213,-8.4596 -0.452,-1.1778 -0.9024,-1.8351 -1.6498,-1.8303 z m 14.3088,14.3139 c -1.2457,0.02 -3.317,1.8665 -7.5726,6.1871 -4.2636,4.3287 -6.0474,7.091 -5.5009,8.5156 1.0426,2.7171 3.665,1.2886 10.4476,-5.694 3.1863,-3.2803 4.7594,-5.9375 4.2704,-7.2116 -0.4464,-1.1635 -0.8971,-1.8091 -1.6445,-1.7971 z m -173.2198,14.1028 c -15.6251,0 -18.5112,0.3403 -22.2016,2.5903 -6.2061,3.7839 -9.555,9.9091 -9.2553,16.9269 0.1734,4.0604 -0.6108,7.2538 -2.5572,10.4119 -2.8248,4.5835 -3.8333,14.6086 -1.7921,17.8192 0.5424,0.8529 2.7292,2.4577 4.8603,3.5689 2.9421,1.5341 8.1034,2.0233 21.444,2.0285 19.2236,0.01 24.1475,-1.3374 28.9555,-7.903 3.2931,-4.4966 5.2897,-13.6274 3.6504,-16.6905 -0.9247,-1.7279 -0.5754,-3.7354 1.2836,-7.3819 1.4044,-2.7546 2.5521,-6.8861 2.5521,-9.1816 0,-10.5731 -3.5869,-12.1952 -26.9397,-12.1887 z m 186.2803,0.4169 c -0.6646,-0.211 -5.0167,2.886 -9.6697,6.8836 -4.6527,3.9977 -13.2913,11.3392 -19.1968,16.3144 -5.9055,4.9751 -10.7373,9.5616 -10.7373,10.1907 0,0.6291 0.9214,2.0628 2.0462,3.1876 1.125,1.1249 2.2771,2.0463 2.5598,2.0463 0.283,0 3.3468,-2.4891 6.8099,-5.5313 3.4631,-3.0422 9.7514,-8.4597 13.9732,-12.0388 16.5563,-14.0359 18.3198,-15.967 16.8177,-18.4063 -0.7668,-1.2457 -1.9381,-2.4353 -2.603,-2.6462 z m -100.5422,0.2287 c -19.6605,0 -23.0096,0.9678 -29.3243,8.4724 -6.9789,8.2939 -11.2188,32.2758 -6.7488,38.1753 0.9996,1.3194 4.0565,3.2282 6.792,4.24 3.495,1.2927 9.6154,1.7381 20.5899,1.5023 24.1518,-0.5189 29.1306,-4.5134 34.0675,-27.3389 2.6266,-12.1445 1.5561,-18.2711 -3.9019,-22.3235 -3.3096,-2.4573 -5.4388,-2.7276 -21.4744,-2.7276 z m -93.0157,8.4343 c 8.75,-0.099 21.5522,1.0864 22.4251,2.4987 1.3596,2.1999 0.3428,6.0991 -2.1249,8.1471 -1.1747,0.9749 -6.31,1.6251 -13.198,1.67 -15.6684,0.1021 -19.3954,-0.4106 -20.3079,-2.7885 -1.1001,-2.8671 2.5645,-7.9983 6.3982,-8.9604 1.4241,-0.3574 3.8907,-0.534 6.8075,-0.5669 z m 90.3796,1.3269 c 14.9212,0 15.4216,0.091 17.4786,3.2308 1.9575,2.9873 1.9529,3.9672 -0.042,12.9285 -1.1863,5.3325 -3.2964,11.1444 -4.6898,12.9157 -2.734,3.4757 -8.8247,4.4598 -23.3583,3.7748 -11.0288,-0.5198 -12.7113,-1.1824 -13.6274,-5.3533 -1.1533,-5.2507 2.7545,-20.981 6.0956,-24.5376 2.5875,-2.7542 3.847,-2.9589 18.1421,-2.9589 z m 116.2135,7.2472 c -1.3066,-0.075 -3.2283,1.1734 -7.6031,4.4763 -6.8778,5.1929 -8.4408,7.515 -6.4234,9.5324 1.531,1.531 2.5989,0.9823 10.1094,-5.2008 6.4332,-5.2963 7.1335,-6.311 5.4906,-7.9538 -0.5133,-0.5134 -0.9795,-0.8201 -1.5735,-0.8541 z m -208.7513,12.5191 c 1.5916,0.019 3.3535,0.065 5.3052,0.1348 16.729,0.5977 18.4093,1.606 15.4855,9.2959 l -1.2684,3.3402 -17.4633,0 c -18.941,0 -20.2636,-0.5292 -17.7683,-7.0921 1.7297,-4.5496 4.568,-5.8085 15.7093,-5.6788 z m 221.6519,4.1663 c -1.6837,-0.06 -4.1594,0.8345 -6.6804,2.6208 -9.0036,6.3795 -9.7391,7.1317 -8.9552,9.1739 0.4252,1.1082 1.4019,2.0158 2.1708,2.0158 1.9233,0 15.6026,-10.4435 15.6026,-11.9116 0,-1.2288 -0.8283,-1.8525 -2.1378,-1.8989 z m -172.0938,8.4546 -6.2658,0.3991 c -6.2362,0.3982 -6.2663,0.4236 -6.6728,5.3559 l -0.4092,4.9543 6.2659,-0.3991 c 6.236,-0.3982 6.2662,-0.4236 6.6728,-5.3559 l 0.4091,-4.9543 z m 182.9759,7.9589 c -2.0761,0 -16.5534,8.9659 -16.5534,10.2517 0,0.5175 0.6986,1.6366 1.5507,2.4886 1.1979,1.1979 2.3045,1.0591 4.8806,-0.6126 1.8321,-1.189 5.227,-3.3795 7.5445,-4.8679 4.1702,-2.6781 5.7969,-7.2598 2.5776,-7.2598 z m 10.3052,17.4735 c -3.1148,0.017 -15.7448,7.8367 -16.2128,10.267 -0.6329,3.2867 2.8041,2.7051 10.8492,-1.8353 6.779,-3.8258 8.7051,-6.5655 5.8542,-8.3275 -0.1167,-0.072 -0.283,-0.1053 -0.4906,-0.1043 z m 5.6863,12.1785 c -3.8295,0.8997 -54.647,32.3393 -54.66,33.8133 0,0.9044 0.722,2.841 1.6167,4.3035 1.0465,1.7103 2.5557,2.4418 4.2299,2.0539 1.4316,-0.3317 15.0386,-5.7822 30.2368,-12.1124 18.8492,-7.8509 27.613,-12.1281 27.5702,-13.4598 -0.1062,-3.2805 -7.3205,-14.9916 -8.9936,-14.5985 z m 12.9412,23.9072 c -1.3584,0.058 -3.9267,1.1858 -9.4739,3.7011 -6.2912,2.8526 -8.399,4.4252 -7.8496,5.8567 0.9486,2.4722 1.7656,2.4489 8.5791,-0.2288 8.0916,-3.18 11.3591,-5.5565 10.5465,-7.6742 -0.421,-1.0972 -0.7456,-1.6997 -1.8021,-1.6548 z m 7.031,19.4715 c -1.6065,0.032 -4.2803,0.8767 -8.5436,2.547 -7.8796,3.0874 -9.4808,4.3117 -8.2511,6.3016 1.1669,1.888 1.5553,1.8423 10.8796,-1.3066 6.1137,-2.0646 8.0605,-3.3226 8.0605,-5.206 0,-1.5856 -0.5389,-2.3679 -2.1454,-2.336 z m 8.2944,18.6656 c -2.9214,-0.202 -16.2966,4.433 -17.3666,6.1643 -0.3989,0.6462 -0.4099,2.0013 -0.022,3.0097 0.5795,1.51 2.2662,1.2883 9.5529,-1.2557 8.3097,-2.9013 11.4385,-5.8557 8.2741,-7.8115 -0.095,-0.059 -0.2426,-0.093 -0.4374,-0.1067 z m 5.7653,19.2554 c -1.3987,0.08 -4.4751,1.0437 -10.9382,2.9869 -6.8567,2.0615 -8.8784,3.966 -6.6141,6.2303 1.1815,1.1816 1.3258,1.1598 10.1932,-1.5989 6.1284,-1.9066 7.9023,-3.0483 8.2411,-5.3076 0.2381,-1.5869 0.5166,-2.3907 -0.882,-2.3107 z m 5.2212,18.287 -24.3927,5.605 c -13.4148,3.0837 -24.8639,6.0811 -25.4427,6.6599 -0.5789,0.5789 -0.7103,2.3596 -0.2923,3.9579 0.418,1.5982 1.7161,2.8981 2.8852,2.8877 2.5937,-0.023 48.3097,-11.2403 49.1235,-12.054 0.319,-0.319 0.026,-2.0371 -0.6507,-3.8181 l -1.2303,-3.2384 z m 2.1403,21.9753 c -1.652,0.018 -4.0304,0.3378 -7.5166,0.9608 -7.5704,1.3529 -9.1536,2.0657 -9.1536,4.1205 0,2.9138 2.1337,3.1003 11.9753,1.0448 7.9481,-1.66 10.0541,-3.0802 7.8495,-5.2848 -0.5781,-0.578 -1.5025,-0.8596 -3.1546,-0.8413 z m 4.6848,19.535 c -1.1125,-0.025 -2.8142,0.1564 -5.4118,0.4753 -10.2969,1.2641 -13.4827,2.5945 -12.4785,5.211 0.6755,1.7602 2.0549,1.9753 8.1113,1.2659 10.3016,-1.2066 11.8508,-1.8331 11.8508,-4.7865 0,-1.5093 -0.2175,-2.1243 -2.0718,-2.1657 z m -174.4221,19.4816 c -9.5942,0.01 -19.1157,1.2188 -22.8344,3.1419 -8.1096,4.1936 -13.7511,15.9311 -14.9647,31.134 -0.6403,8.0222 -0.3903,9.5342 2.0947,12.6717 1.5519,1.9597 4.6887,4.1036 6.9701,4.7636 5.896,1.7059 30.501,1.6924 36.6704,-0.02 10.4455,-2.8998 17.2255,-15.2793 18.5895,-33.9403 0.6067,-8.3029 0.4541,-8.8978 -3.2056,-12.5573 -3.3445,-3.3446 -5.1437,-3.9621 -13.9146,-4.784 -3.0019,-0.2813 -6.2072,-0.4126 -9.4054,-0.4093 z m -47.3491,0.1322 c -1.9357,-0.013 -4.0123,0.309 -5.2493,0.971 -4.0557,2.1706 -16.8888,11.9691 -16.8888,12.8954 0,0.4535 0.9233,2.1454 2.0539,3.7596 l 2.0565,2.9359 4.451,-2.7529 c 2.4485,-1.5133 4.4459,-2.2628 4.4459,-1.6675 0,0.5952 -1.468,7.9644 -3.2537,16.3778 -1.7859,8.4135 -3.2461,16.4665 -3.2461,17.8955 0,2.1061 0.8702,2.6004 4.5957,2.6004 2.5278,0 4.8764,-0.7321 5.2188,-1.6268 1.4386,-3.759 10.7828,-49.7898 10.2212,-50.3513 -0.6751,-0.6752 -2.4697,-1.0238 -4.4051,-1.0371 z m 121.4678,0.8185 c -10.3815,0.05 -13.1172,0.5729 -17.1811,2.6462 -2.9415,1.5006 -6.2783,4.1459 -7.4125,5.877 -3.79,5.7841 -7.056,16.2285 -7.8928,25.2316 -0.7991,8.5982 -0.6892,9.0694 3.086,13.2944 3.7161,4.1591 4.4666,4.4173 14.8095,5.0891 5.9922,0.3892 15.1675,0.3618 20.3917,-0.061 10.3475,-0.8376 14.5013,-2.995 19.2857,-10.0205 3.3873,-4.9736 7.0083,-18.9131 7.0083,-26.9804 0,-12.6569 -4.1399,-14.9572 -27.1506,-15.0739 -1.8214,-0.01 -3.4612,-0.01 -4.9442,0 z m 100.5704,0.1423 c -1.3447,0.032 -3.0965,0.1333 -5.3763,0.2797 -10.5775,0.6789 -11.7677,1.1494 -10.5924,4.212 0.8376,2.1828 4.7033,2.5024 14.3368,1.182 4.8898,-0.6702 6.0397,-1.3208 6.0397,-3.424 0,-1.8155 -0.3737,-2.3454 -4.4078,-2.2497 z m -177.658,9.1054 c 12.4368,0 14.4927,0.3187 16.7769,2.6029 2.9259,2.9259 3.0911,4.6486 1.2506,13.0149 -2.0449,9.2953 -5.282,15.5995 -8.4139,16.3855 -7.3898,1.8548 -28.9065,1.161 -31.5305,-1.0168 -3.8181,-3.1687 -0.1249,-24.5592 4.9568,-28.7089 2.2765,-1.859 5.3929,-2.2776 16.9601,-2.2776 z m 82.7739,0.01 c 15.3224,-0.048 16.8817,2.8604 14.5858,15.7068 -2.0495,11.4687 -4.8703,16.1882 -10.3305,17.2803 -7.9284,1.5857 -26.7787,0.2928 -29.5758,-2.0285 -3.347,-2.7778 -0.8581,-21.1903 3.6784,-27.2067 2.1189,-2.81 3.4987,-3.1559 14.2043,-3.5689 2.7796,-0.1073 5.2489,-0.1761 7.4378,-0.183 z m 95.789,11.3041 c -1.2468,0 -2.8627,0.058 -4.9568,0.15 -9.3085,0.4111 -12.0604,1.4896 -10.4501,4.0951 0.5761,0.9319 4.3211,1.329 10.234,1.0879 8.3308,-0.3396 9.3265,-0.6563 9.3265,-2.9817 0,-1.795 -0.4134,-2.3454 -4.1536,-2.3513 z m 4.8043,13.114 -14.6417,0.8566 c -23.854,1.398 -49.7239,3.5057 -50.3158,4.0977 -0.7395,0.7395 -0.7078,8.2043 0.038,8.9503 0.3248,0.3247 10.527,1.4121 22.6693,2.4174 12.1424,1.0053 26.6159,1.9116 32.1636,2.0132 l 10.0865,0.1856 0,-9.2604 0,-9.2604 z m -152.3705,9.1028 c -3.3944,0.017 -3.4078,0.5079 -4.4103,5.1881 l -0.9076,4.2299 6.4719,0 c 6.6924,0 8.053,-1.1168 8.053,-6.6142 0,-2.5832 -0.38,-2.723 -7.5344,-2.7911 -0.6357,-0.01 -1.1879,-0.015 -1.6726,-0.013 z"
       id="path3638-5"
       inkscape:connector-curvature="0" />
    <path
       style="fill:#000000"
       d="m -635.98082,1036.6582 -34.9877,-34.9985 21.98259,-21.99959 21.98258,-21.99963 -54.23952,-54.2734 -54.23953,-54.2734 0,-30.72855 0,-30.72855 31.5,0 31.5,0 0,17.25815 0,17.25816 23.00314,22.98683 23.00314,22.98682 33.24184,-33.24184 33.24184,-33.24184 -22.98682,-23.00314 -22.98683,-23.00314 -64.51421,0 -64.5142,0 -30.9879,-31 -30.9879,-31 108.99742,0 108.99742,0 53.98626,53.9932 53.98625,53.9932 -10.97683,11.01097 -10.97683,11.01098 21.2371,21.25435 21.23711,21.25435 0,44.48717 0,44.48716 -43.49938,-43.49076 -43.49937,-43.49075 -11.24569,11.24569 -11.24569,11.24569 43.49075,43.49937 43.49076,43.49938 -44.48716,0 -44.48717,0 -21.25435,-21.23711 -21.25435,-21.2371 -11.00924,10.97509 -11.00923,10.9751 26.24798,26.26201 26.24799,26.26203 109.51312,0 109.51313,0 30.9879,31 30.9879,31 -153.99931,0 -153.9993,0 -34.98771,-34.9984 z m 217.49842,-120.74467 0,-61.74306 -26.24506,-26.25908 -26.24505,-26.25908 22.24378,-22.24378 22.24378,-22.24378 35.00128,34.99056 35.00127,34.99056 0,75.25535 0,75.25536 -31,0 -31,0 0,-61.74305 z"
       id="path4194"
       inkscape:connector-curvature="0" />
    <path
       style="fill:#ffffff"
       d="m 203.83608,1362.3086 -22.2717,-22.2786 13.99316,-14.0041 13.99323,-14.004 -34.52665,-34.5482 -34.52663,-34.5482 0,-19.5606 0,-19.5605 20.0516,0 20.05161,0 0,10.9858 0,10.9859 14.64283,14.6324 14.64285,14.6325 21.16039,-21.1604 21.16039,-21.1604 -14.63246,-14.6428 -14.63247,-14.6429 -41.06708,0 -41.06709,0 -19.72562,-19.7333 -19.72562,-19.7333 69.38326,0 69.38327,0 34.36543,34.3698 34.36543,34.3699 -6.9874,7.0091 -6.9874,7.0091 13.51867,13.5297 13.51867,13.5296 0,28.3187 0,28.3187 -27.68992,-27.6844 -27.68991,-27.6844 -7.15854,7.1585 -7.15855,7.1585 27.68443,27.69 27.68443,27.6899 -28.3187,0 -28.3187,0 -13.52965,-13.5187 -13.52964,-13.5186 -7.00803,6.9863 -7.00802,6.9863 16.70838,16.7173 16.70839,16.7173 69.71155,0 69.71155,0 19.72562,19.7333 19.72563,19.7333 -98.02963,0 -98.02962,0 -22.27174,-22.2785 z m 138.45055,-76.8611 0,-39.3031 -16.70652,-16.7154 -16.70652,-16.7155 14.15947,-14.1595 14.15948,-14.1594 22.28037,22.2735 22.28037,22.2736 0,47.9044 0,47.9045 -19.73332,0 -19.73333,0 0,-39.3031 z"
       id="path4194-7"
       inkscape:connector-curvature="0" />
  </g>
</svg>
