<?xml version="1.0" encoding="UTF-8" standalone="no"?>
<!-- Created with Inkscape (http://www.inkscape.org/) -->

<svg
   xmlns:dc="http://purl.org/dc/elements/1.1/"
   xmlns:cc="http://creativecommons.org/ns#"
   xmlns:rdf="http://www.w3.org/1999/02/22-rdf-syntax-ns#"
   xmlns:svg="http://www.w3.org/2000/svg"
   xmlns="http://www.w3.org/2000/svg"
   xmlns:sodipodi="http://sodipodi.sourceforge.net/DTD/sodipodi-0.dtd"
   xmlns:inkscape="http://www.inkscape.org/namespaces/inkscape"
   width="210mm"
   height="297mm"
   viewBox="0 0 744.09448819 1052.3622047"
   id="svg2"
   version="1.1"
   inkscape:version="0.91 r13725"
   sodipodi:docname="ELM327WebsocketServer_Icon.svg">
  <defs
     id="defs4">
    <filter
       inkscape:menu-tooltip="Pressed metal with a rolled edge"
       inkscape:menu="Bevels"
       inkscape:label="Pressed Steel"
       style="color-interpolation-filters:sRGB;"
       id="filter3557">
      <feGaussianBlur
         result="result1"
         stdDeviation="3"
         id="feGaussianBlur3559" />
      <feBlend
         in2="result1"
         result="result5"
         mode="multiply"
         in="result1"
         id="feBlend3561" />
      <feGaussianBlur
         in="result5"
         result="result6"
         stdDeviation="1"
         id="feGaussianBlur3563" />
      <feComposite
         result="result8"
         in2="result5"
         in="result6"
         operator="xor"
         id="feComposite3565" />
      <feComposite
         in="result6"
         result="fbSourceGraphic"
         operator="xor"
         in2="result8"
         id="feComposite3567" />
      <feSpecularLighting
         in="fbSourceGraphic"
         result="result1"
         lighting-color="rgb(255,255,255)"
         surfaceScale="2"
         specularConstant="2.2"
         specularExponent="55"
         id="feSpecularLighting3569">
        <fePointLight
           x="-5000"
           y="-10000"
           z="20000"
           id="fePointLight3571" />
      </feSpecularLighting>
      <feComposite
         in2="fbSourceGraphic"
         in="result1"
         result="result2"
         operator="in"
         id="feComposite3573" />
      <feComposite
         in="fbSourceGraphic"
         result="result4"
         operator="arithmetic"
         k2="2"
         k3="1"
         in2="result2"
         id="feComposite3575" />
      <feComposite
         in2="result4"
         in="result4"
         operator="in"
         result="result91"
         id="feComposite3577" />
      <feBlend
         mode="darken"
         in2="result91"
         id="feBlend3579" />
    </filter>
    <filter
       inkscape:label="Stained Glass"
       inkscape:menu="Bevels"
       inkscape:menu-tooltip="Illuminated stained glass effect"
       height="1.5"
       width="1.5"
       y="-0.25"
       x="-0.25"
       style="color-interpolation-filters:sRGB;"
       id="filter4214">
      <feBlend
         in2="SourceGraphic"
         result="result1"
         mode="screen"
         id="feBlend4216" />
      <feGaussianBlur
         stdDeviation="7"
         result="result6"
         id="feGaussianBlur4218" />
      <feComposite
         operator="xor"
         in="result6"
         in2="result6"
         result="result7"
         id="feComposite4220" />
      <feComposite
         in2="result1"
         operator="atop"
         in="result6"
         result="result92"
         id="feComposite4222" />
      <feComposite
         result="result4"
         in="result7"
         operator="xor"
         in2="result92"
         id="feComposite4224" />
      <feGaussianBlur
         result="result3"
         stdDeviation="0.7"
         in="result4"
         id="feGaussianBlur4226" />
      <feSpecularLighting
         result="result5"
         specularExponent="50"
         specularConstant="1.5"
         surfaceScale="4"
         id="feSpecularLighting4228">
        <fePointLight
           z="20000"
           y="-8000"
           x="-5000"
           id="fePointLight4230" />
      </feSpecularLighting>
      <feComposite
         in="result3"
         k3="1"
         k2="1"
         operator="arithmetic"
         in2="SourceGraphic"
         result="result93"
         id="feComposite4232" />
      <feComposite
         in="result5"
         operator="atop"
         in2="result93"
         result="result94"
         id="feComposite4234" />
      <feBlend
         mode="multiply"
         in2="result94"
         id="feBlend4236" />
    </filter>
  </defs>
  <sodipodi:namedview
     id="base"
     pagecolor="#ffffff"
     bordercolor="#666666"
     borderopacity="1.0"
     inkscape:pageopacity="0.0"
     inkscape:pageshadow="2"
     inkscape:zoom="0.49497475"
     inkscape:cx="24.408914"
     inkscape:cy="-126.41614"
     inkscape:document-units="px"
     inkscape:current-layer="layer1"
     showgrid="false"
     inkscape:window-width="1366"
     inkscape:window-height="706"
     inkscape:window-x="-8"
     inkscape:window-y="-8"
     inkscape:window-maximized="1"
     inkscape:snap-text-baseline="false" />
  <metadata
     id="metadata7">
    <rdf:RDF>
      <cc:Work
         rdf:about="">
        <dc:format>image/svg+xml</dc:format>
        <dc:type
           rdf:resource="http://purl.org/dc/dcmitype/StillImage" />
        <dc:title />
      </cc:Work>
    </rdf:RDF>
  </metadata>
  <g
     inkscape:label="レイヤー 1"
     inkscape:groupmode="layer"
     id="layer1">
    <rect
       style="fill:#008080;stroke:#ffffff;filter:url(#filter3557)"
       id="rect3555"
       width="194.28572"
       height="172.14285"
       x="133.57143"
       y="174.50507"
       transform="matrix(2.9921645,0,0,3.3092399,-293.44136,-395.29826)" />
    <g
       transform="matrix(0.49236958,0,0,0.49236958,445.93506,207.09805)"
       id="g4181">
      <polygon
         style="fill:#e44d26"
         id="polygon6"
         points="437.367,100.62 404.321,470.819 255.778,512 107.644,470.877 74.633,100.62 " />
      <polygon
         style="fill:#f16529"
         id="polygon8"
         points="256,480.523 376.03,447.246 404.27,130.894 256,130.894 " />
      <polygon
         style="fill:#ebebeb"
         id="polygon10"
         points="191.76,221.716 256,221.716 256,176.305 255.843,176.305 142.132,176.305 143.219,188.488 154.38,313.627 256,313.627 256,268.217 195.91,268.217 " />
      <polygon
         style="fill:#ebebeb"
         id="polygon12"
         points="201.994,336.333 177.419,336.333 156.409,336.333 162.771,407.634 255.791,433.457 256,433.399 256,386.153 255.801,386.206 205.227,372.55 " />
      <path
         inkscape:connector-curvature="0"
         id="path14"
         d="m 108.382,0 23.077,0 0,22.8 21.11,0 0,-22.8 23.078,0 0,69.044 -23.077,0 0,-23.12 -21.11,0 0,23.12 -23.077,0 0,-69.044 z"
         style="fill:#ffffff" />
      <path
         inkscape:connector-curvature="0"
         id="path16"
         d="m 205.994,22.896 -20.316,0 0,-22.896 63.72,0 0,22.896 -20.325,0 0,46.148 -23.078,0 0,-46.148 z"
         style="fill:#ffffff" />
      <path
         inkscape:connector-curvature="0"
         id="path18"
         d="m 259.511,0 24.063,0 14.802,24.26 14.787,-24.26 24.072,0 0,69.044 -22.982,0 0,-34.222 -15.877,24.549 -0.397,0 -15.888,-24.549 0,34.222 -22.58,0 0,-69.044 z"
         style="fill:#ffffff" />
      <path
         inkscape:connector-curvature="0"
         id="path20"
         d="m 348.72,0 23.084,0 0,46.222 32.453,0 0,22.822 -55.537,0 0,-69.044 z"
         style="fill:#ffffff" />
      <polygon
         style="fill:#ffffff"
         id="polygon22"
         points="255.843,313.627 311.761,313.627 306.49,372.521 255.843,386.191 255.843,433.435 348.937,407.634 349.62,399.962 360.291,280.411 361.399,268.217 349.162,268.217 255.843,268.217 " />
      <polygon
         style="fill:#ffffff"
         id="polygon24"
         points="255.843,221.605 255.843,221.716 365.385,221.716 365.385,221.716 365.531,221.716 366.442,211.509 368.511,188.488 369.597,176.305 255.843,176.305 255.843,204.509 " />
    </g>
    <circle
       style="fill:#ffff00;fill-opacity:1;stroke:#000000;filter:url(#filter4214)"
       id="path4158"
       cx="387.89859"
       cy="1185.7024"
       r="359.61432" />
    <path
       style="fill:#000000"
       d="m -635.98082,1036.6582 -34.9877,-34.9985 21.98259,-21.99959 21.98258,-21.99963 -54.23952,-54.2734 -54.23953,-54.2734 0,-30.72855 0,-30.72855 31.5,0 31.5,0 0,17.25815 0,17.25816 23.00314,22.98683 23.00314,22.98682 33.24184,-33.24184 33.24184,-33.24184 -22.98682,-23.00314 -22.98683,-23.00314 -64.51421,0 -64.5142,0 -30.9879,-31 -30.9879,-31 108.99742,0 108.99742,0 53.98626,53.9932 53.98625,53.9932 -10.97683,11.01097 -10.97683,11.01098 21.2371,21.25435 21.23711,21.25435 0,44.48717 0,44.48716 -43.49938,-43.49076 -43.49937,-43.49075 -11.24569,11.24569 -11.24569,11.24569 43.49075,43.49937 43.49076,43.49938 -44.48716,0 -44.48717,0 -21.25435,-21.23711 -21.25435,-21.2371 -11.00924,10.97509 -11.00923,10.9751 26.24798,26.26201 26.24799,26.26203 109.51312,0 109.51313,0 30.9879,31 30.9879,31 -153.99931,0 -153.9993,0 -34.98771,-34.9984 z m 217.49842,-120.74467 0,-61.74306 -26.24506,-26.25908 -26.24505,-26.25908 22.24378,-22.24378 22.24378,-22.24378 35.00128,34.99056 35.00127,34.99056 0,75.25535 0,75.25536 -31,0 -31,0 0,-61.74305 z"
       id="path4194"
       inkscape:connector-curvature="0" />
    <path
       style="fill:#ffffff"
       d="m 185.65333,1412.8162 -22.2717,-22.2786 13.99316,-14.0041 13.99323,-14.004 -34.52665,-34.5482 -34.52663,-34.5482 0,-19.5606 0,-19.5605 20.0516,0 20.05161,0 0,10.9858 0,10.9859 14.64283,14.6324 14.64285,14.6325 21.16039,-21.1604 21.16039,-21.1604 -14.63246,-14.6428 -14.63247,-14.6429 -41.06708,0 -41.06709,0 -19.72562,-19.7333 -19.725616,-19.7333 69.383256,0 69.38327,0 34.36543,34.3698 34.36543,34.3699 -6.9874,7.0091 -6.9874,7.0091 13.51867,13.5297 13.51867,13.5296 0,28.3187 0,28.3187 -27.68992,-27.6844 -27.68991,-27.6844 -7.15854,7.1585 -7.15855,7.1585 27.68443,27.69 27.68443,27.6899 -28.3187,0 -28.3187,0 -13.52965,-13.5187 -13.52964,-13.5186 -7.00803,6.9863 -7.00802,6.9863 16.70838,16.7173 16.70839,16.7173 69.71155,0 69.71155,0 19.72562,19.7333 19.72563,19.7333 -98.02963,0 -98.02962,0 -22.27174,-22.2785 z m 138.45055,-76.8611 0,-39.3031 -16.70652,-16.7154 -16.70652,-16.7155 14.15947,-14.1595 14.15948,-14.1594 22.28037,22.2735 22.28037,22.2736 0,47.9044 0,47.9045 -19.73332,0 -19.73333,0 0,-39.3031 z"
       id="path4194-7"
       inkscape:connector-curvature="0" />
    <path
       style="fill:#ffffff"
       d="m 321.62844,676.42516 c -7.15242,-1.926 -11.01998,-6.2755 -12.22053,-13.7436 -0.28022,-1.7431 -0.48906,-11.0197 -0.49109,-21.8135 l -0.004,-18.7806 5.59919,0 5.59919,0 0,18.641 c 0,20.7946 0.19337,22.7064 2.53349,25.0465 3.22732,3.2273 10.21368,3.3926 13.42337,0.3175 2.53273,-2.4265 2.7071,-4.0343 2.7071,-24.9592 l 0,-19.0458 5.59919,0 5.59919,0 -0.008,18.5473 c -0.009,19.7569 -0.26305,22.6712 -2.33346,26.7296 -2.35811,4.6223 -7.07769,8.1201 -12.49592,9.2611 -3.36762,0.7091 -10.52482,0.603 -13.5081,-0.2003 z m 143.6444,-0.017 c -7.4377,-2.0002 -12.18696,-7.3878 -14.36209,-16.2925 -1.13028,-4.6273 -1.13143,-16.5627 -0.002,-20.7637 1.93688,-7.2044 5.76109,-12.5491 10.94494,-15.2966 3.75138,-1.9884 6.17652,-2.5274 11.31603,-2.5152 11.03745,0.026 17.61637,5.2427 20.60727,16.3401 1.31564,4.8816 1.44532,16.5652 0.23384,21.0689 -2.59891,9.6615 -7.77086,15.3864 -15.84144,17.5349 -3.13244,0.8339 -9.65602,0.7955 -12.89654,-0.076 z m 11.00254,-9.5565 c 4.66781,-1.7637 6.87116,-7.281 6.8826,-17.2345 0.0148,-12.8957 -3.15679,-18.314 -10.72016,-18.314 -2.36245,0 -3.39358,0.2502 -5.06275,1.2284 -4.14058,2.4265 -6.28688,9.6462 -5.70347,19.1853 0.53248,8.7061 2.47707,13.1258 6.58532,14.9671 1.69113,0.758 6.20615,0.8524 8.01846,0.1677 z m -313.48392,8.267 c 0.17027,-0.6021 3.87908,-12.7775 8.24178,-27.0567 l 7.93218,-25.9621 7.55079,-0.01 c 6.79009,-0.01 7.57547,0.076 7.79548,0.8104 0.13461,0.4491 3.82322,12.4998 8.19694,26.7794 4.37373,14.2796 7.95224,26.0904 7.95224,26.2462 0,0.1559 -2.72071,0.2833 -6.04603,0.2833 l -6.04603,0 -0.98833,-3.3828 c -0.54357,-1.8606 -1.21561,-4.1702 -1.49342,-5.1326 l -0.50509,-1.7497 -9.41756,0 -9.41756,0 -0.50509,1.7497 c -0.27781,0.9624 -0.94985,3.272 -1.4934,5.1326 l -0.98835,3.3828 -5.53909,0 -5.53904,0 0.30958,-1.0945 z m 29.64702,-18.4083 c 0.19251,-0.3115 -5.65276,-21.3972 -6.09472,-21.9857 -0.0804,-0.1069 -0.24697,-0.093 -0.3703,0.03 -0.3289,0.3288 -6.30814,20.8488 -6.30814,21.6486 0,0.5611 1.09208,0.6794 6.27156,0.6794 3.44934,0 6.37505,-0.1675 6.5016,-0.3722 z m 23.15498,-7.6173 0,-27.1201 11.31503,0.2475 c 14.51821,0.3177 17.87382,1.131 21.90738,5.3102 2.16565,2.2438 3.13858,4.5514 3.48555,8.267 0.57276,6.1335 -2.01065,10.9548 -7.19531,13.4282 l -3.17036,1.5125 1.88173,1.889 c 1.37191,1.3771 3.30254,4.7721 7.12592,12.5307 2.8843,5.853 5.24419,10.7348 5.24419,10.8484 0,0.1137 -2.88708,0.2046 -6.41574,0.2021 l -6.41574,0 -3.92554,-8.7441 c -2.15905,-4.8092 -4.4439,-9.4488 -5.07745,-10.3101 -1.32049,-1.7951 -3.53088,-2.8667 -5.9132,-2.8667 l -1.64808,0 0,10.9651 0,10.9651 -5.59919,0 -5.59919,0 0,-27.1201 z m 20.97271,-4.7516 c 1.1415,-0.563 2.47689,-1.577 2.96756,-2.2534 1.28558,-1.7723 1.49814,-4.9355 0.46499,-6.9198 -1.35665,-2.6057 -3.37221,-3.4622 -8.64607,-3.674 l -4.56081,-0.1832 0,7.3468 0,7.3468 3.84944,-0.3198 c 2.47632,-0.2057 4.58978,-0.6849 5.92489,-1.3434 z m 24.75401,4.7475 0,-27.124 11.31503,0.2455 c 9.41452,0.2042 11.9227,0.4073 14.93293,1.2092 8.21421,2.188 12.86349,6.9416 15.12629,15.4655 1.27823,4.815 1.14398,14.9802 -0.26358,19.9587 -2.53536,8.9675 -8.83767,14.6814 -18.34429,16.6315 -2.59318,0.5319 -6.27034,0.7378 -13.18143,0.7378 l -9.58495,0 0,-27.1242 z m 18.91342,17.7497 c 3.64605,-0.674 5.82675,-1.8425 7.8502,-4.2065 2.75527,-3.2189 3.33203,-5.6354 3.33203,-13.9603 l 0,-7.2442 -1.6331,-3.2543 c -2.49297,-4.9678 -6.03197,-6.7538 -13.38276,-6.7538 l -3.88141,0 0,17.9641 0,17.9641 2.4806,0 c 1.36433,0 3.71983,-0.2291 5.23444,-0.5091 z m 79.0724,4.9418 0,-4.4327 6.06579,0 6.06579,0 0,-18.1974 0,-18.1974 -6.06579,0 -6.06579,0 0,-4.4327 0,-4.4326 17.73078,0 17.73076,0 0,4.4187 0,4.4188 -5.94914,0.1305 -5.94914,0.1306 -0.12212,18.0808 -0.12214,18.0807 6.07128,0 6.07126,0 0,4.4327 0,4.4327 -17.73076,0 -17.73078,0 0,-4.4327 z m 45.26013,-22.6301 0,-27.0627 6.67538,0 6.67538,0 7.0699,15.0478 c 3.88844,8.2763 7.6989,16.4126 8.46768,18.0807 l 1.39778,3.0329 0.0214,-18.0807 0.0214,-18.0807 5.13259,0 5.13259,0 0,27.0627 0,27.0628 -6.64904,-0.014 -6.64904,-0.015 -8.39878,-18.202 -8.39879,-18.202 -0.12206,18.2167 -0.12207,18.2166 -5.12717,0 -5.12718,0 0,-27.0627 z M 233.5631,607.09876 c -15.35148,-1.1761 -30.34546,-6.7388 -42.79566,-15.8772 -2.12839,-1.5623 -6.39782,-5.3875 -9.48759,-8.5006 -11.0626,-11.1462 -18.29041,-24.695 -21.19041,-39.7225 -1.36999,-7.0993 -1.36999,-22.2953 0,-29.3946 4.62931,-23.9884 20.9076,-44.8954 43.58158,-55.9739 27.08523,-13.2339 61.67268,-10.6649 87.44938,6.4954 11.71533,7.7992 23.29937,19.8746 34.70751,36.1799 l 0.81615,1.1665 0.81616,-1.1665 c 17.53434,-25.0612 34.11325,-38.9951 54.93798,-46.173 14.50096,-4.9982 32.41108,-6.225 47.30785,-3.2406 32.21128,6.4531 57.2095,31.2358 63.60742,63.0591 1.52619,7.5912 1.52316,21.124 -0.006,28.7345 -4.62581,23.0158 -18.75913,42.3668 -39.55085,54.1518 -11.04865,6.2625 -22.29355,9.4309 -36.92824,10.4048 -33.46651,2.2272 -57.89065,-9.951 -80.51699,-40.1466 -2.62337,-3.501 -5.81913,-7.99 -7.10168,-9.9756 -1.28255,-1.9855 -2.4369,-3.6101 -2.56521,-3.6101 -0.12831,0 -1.28266,1.6246 -2.56521,3.6101 -7.19416,11.1376 -17.65318,23.5286 -25.53252,30.2489 -18.59276,15.8578 -38.12391,21.7878 -64.98324,19.7302 z m 22.85789,-28.3929 c 17.95504,-3.7002 31.04634,-15.3563 49.21894,-43.8233 2.35826,-3.6941 4.38481,-6.9696 4.50345,-7.2787 0.11863,-0.3092 -1.71483,-3.4808 -4.07437,-7.048 -12.59405,-19.0403 -24.46487,-31.0993 -36.58334,-37.163 -8.59297,-4.2997 -15.4215,-5.9237 -26.36286,-6.2695 -9.0321,-0.2856 -13.35752,0.248 -20.29706,2.5038 -23.6429,7.6853 -38.86916,30.2329 -36.25644,53.69 0.94561,8.4894 3.42437,15.4158 7.99966,22.3537 7.548,11.4455 19.81742,19.7307 33.85597,22.8618 7.44189,1.6598 20.39328,1.7399 27.99605,0.1732 z m -41.76073,-52.7377 0,-6.0658 27.76265,0 27.76265,0 0,6.0658 0,6.0658 -27.76265,0 -27.76265,0 0,-6.0658 z m 208.10323,52.9065 c 27.52643,-4.7619 46.87924,-29.3024 43.94167,-55.7206 -2.56146,-23.0358 -20.06384,-41.069 -44.17496,-45.5145 -5.65217,-1.0422 -18.68679,-0.6877 -24.49646,0.6661 -19.0983,4.4505 -33.56209,16.3583 -50.24212,41.3634 -2.05426,3.0796 -3.99294,6.0851 -4.30819,6.6789 -0.52317,0.9855 -0.15789,1.7318 4.1871,8.5546 19.91116,31.2656 34.62171,43.062 55.9624,44.8763 3.82813,0.3254 15.10335,-0.2075 19.13056,-0.9042 z m -21.93016,-37.742 0,-7.6989 -7.46558,0 -7.46559,0 0,-7.4656 0,-7.4656 7.46559,0 7.46558,0 0,-7.6989 0,-7.6988 7.93219,0 7.93219,0 0,7.6988 0,7.6989 7.46558,0 7.46559,0 0,7.4656 0,7.4656 -7.46559,0 -7.46558,0 0,7.6989 0,7.6989 -7.93219,0 -7.93219,0 0,-7.6989 z m 76.05567,-81.6549 c 0,-2.924 -0.0419,-3.0329 -1.1665,-3.0329 -0.72582,0 -1.16649,-0.2644 -1.16649,-0.6999 0,-0.5554 0.67397,-0.6999 3.26619,-0.6999 2.59222,0 3.26619,0.1445 3.26619,0.6999 0,0.4666 -0.4666,0.6999 -1.39979,0.6999 l -1.3998,0 0,3.0329 c 0,2.3849 -0.14955,3.0329 -0.6999,3.0329 -0.55035,0 -0.6999,-0.648 -0.6999,-3.0329 z m 4.66599,-0.7323 c 0,-3.6359 0.036,-3.7601 1.04793,-3.6162 0.82259,0.1171 1.19754,0.6759 1.7437,2.5988 0.38268,1.3473 0.82908,2.4496 0.99201,2.4496 0.16293,0 0.60188,-1.1023 0.97545,-2.4496 0.52492,-1.8932 0.90946,-2.4835 1.69285,-2.5988 0.96904,-0.1425 1.01365,0.017 1.01365,3.6162 0,3.0358 -0.13559,3.7652 -0.6999,3.7652 -0.51764,0 -0.71152,-0.5771 -0.74451,-2.2163 l -0.0446,-2.2164 -0.7372,2.2164 c -0.99996,3.0063 -1.9989,2.9279 -2.97472,-0.2333 l -0.75616,-2.4497 -0.0543,2.4497 c -0.0409,1.8422 -0.22789,2.4496 -0.75425,2.4496 -0.56431,0 -0.6999,-0.7294 -0.6999,-3.7652 z"
       id="path3509"
       inkscape:connector-curvature="0" />
    <path
       style="fill:#ffffff"
       d="m 372.02167,968.53971 c -55.07362,0.1815 -110.16603,-0.1971 -165.22798,0.6341 -15.80446,2.5622 -27.6628,20.6065 -21.47731,35.92439 11.91794,37.2965 24.81507,74.309 38.28283,111.0727 2.78683,7.4667 11.95542,10.8685 19.33874,9.6936 42.9342,0.095 85.8684,0.1913 128.80259,0.2874 0.53572,5.8458 -0.97286,12.1744 1.00402,17.7889 16.46069,1.4964 33.24609,0.2397 49.81558,0.5783 8.00181,-0.034 16.0036,-0.069 24.00541,-0.1028 0.8647,-5.6912 -1.22275,-14.3831 1.4035,-18.2794 44.59926,-0.3564 89.23316,0.7384 133.81205,-0.6214 8.04091,0.1948 13.77357,-6.999 15.17688,-14.3271 12.66211,-36.248 26.06913,-72.2931 37.13933,-109.0623 4.96287,-17.42809 -12.37345,-35.73409 -30.03134,-33.16189 -77.3463,-0.5238 -154.69657,-0.4016 -232.0443,-0.4248 z m 74.18667,7.2563 c 54.77951,0.2574 109.6074,-0.3435 164.35714,0.744 13.16919,2.0586 20.93517,17.6803 14.95809,29.47949 -12.2891,36.4643 -24.52805,73.1311 -37.99954,109.0377 -6.41153,6.6679 -16.73035,2.3214 -24.90363,3.5678 -108.47761,-0.1028 -216.9743,0.4507 -325.44016,-0.3043 -8.3008,-1.4101 -8.33715,-11.6346 -11.56106,-17.6907 -11.7119,-33.8783 -23.89528,-67.6413 -34.51127,-101.85389 -1.78323,-13.7118 12.24956,-24.7465 25.27762,-22.5604 76.60575,-0.5136 153.21565,-0.3961 229.82281,-0.4197 z M 263.183,990.45241 c 0,7.4944 0,14.98899 0,22.48339 10.34444,0 20.6889,0 31.03335,0 0,-8.2159 0,-16.43189 0,-24.64789 -10.34445,0 -20.68891,0 -31.03335,0 l 0,1.0822 0,1.0823 z m 37.73378,0 c 0,7.4944 0,14.98899 0,22.48339 10.15069,0 20.30139,0 30.45209,0 0,-8.2159 0,-16.43189 0,-24.64789 -10.1507,0 -20.3014,0 -30.45209,0 l 0,1.0822 0,1.0823 z m 37.15463,0 c 0,7.4944 0,14.98899 0,22.48339 10.34445,0 20.6889,0 31.03336,0 0,-8.2159 0,-16.43189 0,-24.64789 -10.34446,0 -20.68891,0 -31.03336,0 l 0,1.0822 0,1.0823 z m 37.15252,0 c 0,7.4944 -10e-6,14.98899 0,22.48339 10.34445,0 20.6889,0 31.03335,0 0,-8.2159 0,-16.43189 0,-24.64789 -10.34445,0 -20.6889,0 -31.03335,0 l 0,1.0822 0,1.0823 z m 37.15463,0 c 0,7.4944 0,14.98899 0,22.48339 10.34445,0 20.6889,0 31.03335,0 0,-8.2159 0,-16.43189 0,-24.64789 -10.34445,0 -20.6889,0 -31.03335,0 l 0,1.0822 0,1.0823 z m 37.15463,0 c 0,7.4944 0,14.98899 0,22.48339 10.34445,0 20.6889,0 31.03335,0 0,-8.2159 0,-16.43189 0,-24.64789 -10.34445,0 -20.6889,0 -31.03335,0 l 0,1.0822 0,1.0823 z m 37.73378,0 c 0,7.4944 10e-6,14.98899 0,22.48339 10.1507,0 20.3014,0 30.45209,0 0,-8.2159 0,-16.43189 0,-24.64789 -10.15069,0 -20.30139,0 -30.45209,0 l 0,1.0822 0,1.0823 z m 37.15464,0 c 0,7.4944 0,14.98899 0,22.48339 10.34445,0 20.68889,0 31.03335,0 0,-8.2159 0,-16.43189 0,-24.64789 -10.34446,0 -20.6889,0 -31.03335,0 l 0,1.0822 0,1.0823 z m -245.43236,5.0665 c 8.5654,-3.6219 9.95855,5.78139 6.9118,10.18379 -4.84899,-1.5626 -16.69978,3.8766 -14.90582,-4.3288 -1.41746,-7.86089 1.93316,-5.59669 7.99402,-5.85499 z m 37.15463,0 c 8.56539,-3.6219 9.95855,5.78139 6.9118,10.18379 -4.8498,-1.5625 -16.70099,3.8765 -14.90793,-4.3288 -1.41826,-7.86209 1.93544,-5.59619 7.99613,-5.85499 z m 37.15252,0 c 8.56545,-3.6212 9.96177,5.77969 6.91391,10.18379 -4.84946,-1.5628 -16.70157,3.8771 -14.90793,-4.3288 -1.41746,-7.86089 1.93316,-5.59669 7.99402,-5.85499 z m 37.46322,0 c 8.49345,-3.4552 10.28421,5.30609 6.94366,9.94529 -4.7137,-0.376 -11.37851,0.9654 -15.13425,-0.4125 0.4557,-3.8759 -2.53572,-11.69389 4.21684,-9.53279 1.32459,0 2.64918,0 3.97375,0 z m 37.15252,0 c 8.53671,-2.4173 9.09725,2.9539 8.02573,9.92809 -5.06886,-0.3788 -12.10193,0.9914 -16.2142,-0.3953 0.4555,-3.8755 -2.53989,-11.69439 4.21472,-9.53279 1.32459,0 2.64916,0 3.97375,0 z m 37.42731,0 c 8.56539,-3.6219 9.95854,5.78139 6.91179,10.18379 -4.84898,-1.5626 -16.69978,3.8766 -14.90581,-4.3288 -1.41746,-7.86089 1.93316,-5.59669 7.99402,-5.85499 z m 37.15463,0 c 8.56539,-3.6219 9.95855,5.78139 6.9118,10.18379 -4.84981,-1.5625 -16.701,3.8765 -14.90793,-4.3288 -1.41827,-7.86209 1.93543,-5.59619 7.99613,-5.85499 z m 37.15252,0 c 8.56544,-3.6212 9.96176,5.77969 6.91391,10.18379 -4.84947,-1.5628 -16.70157,3.8771 -14.90793,-4.3288 -1.41746,-7.86089 1.93316,-5.59669 7.99402,-5.85499 z M 263.183,1034.5717 c 0,9.2361 0,18.4723 0,27.7085 45.36917,0 90.73835,0 136.10753,0 0,-9.9577 0,-19.9154 0,-29.8729 -45.36918,0 -90.73836,0 -136.10753,0 l 0,1.0822 0,1.0822 z m 156.16232,0 c 0,9.2361 0,18.4723 0,27.7085 45.36987,0 90.73976,0 136.10964,0 0,-9.9577 0,-19.9154 0,-29.8729 -45.36988,0 -90.73977,0 -136.10964,0 l 0,1.0822 0,1.0822 z m -88.10751,5.0686 c 20.08086,0 40.16173,0 60.24259,0 -1.67677,4.5418 3.61864,16.0557 -3.24664,15.4088 -39.07952,0 -78.15902,0 -117.23853,0 1.67678,-4.5417 -3.61864,-16.0556 3.24665,-15.4088 18.99865,0 37.99729,0 56.99593,0 z m 156.16233,0 c 20.08086,0 40.16172,0 60.24258,0 -1.67677,4.5418 3.61865,16.0557 -3.24664,15.4088 -39.07951,0 -78.15902,0 -117.23852,0 1.67676,-4.5417 -3.61865,-16.0556 3.24664,-15.4088 18.99864,0 37.99729,0 56.99594,0 z M 263.183,1083.9181 c 0,7.4938 0,14.9876 0,22.4814 10.34444,0 20.6889,0 31.03335,0 0,-8.2153 0,-16.4305 0,-24.6458 -10.34445,0 -20.68891,0 -31.03335,0 l 0,1.0822 0,1.0822 z m 37.73378,0 c 0,7.4938 0,14.9876 0,22.4814 10.15069,0 20.30139,0 30.45209,0 0,-8.2153 0,-16.4305 0,-24.6458 -10.1507,0 -20.3014,0 -30.45209,0 l 0,1.0822 0,1.0822 z m 37.15463,0 c 0,7.4938 0,14.9876 0,22.4814 10.34445,0 20.6889,0 31.03336,0 0,-8.2153 0,-16.4305 0,-24.6458 -10.34446,0 -20.68891,0 -31.03336,0 l 0,1.0822 0,1.0822 z m 37.15252,0 c 0,7.4938 0,14.9876 0,22.4814 10.34445,0 20.6889,0 31.03335,0 0,-8.2153 0,-16.4305 0,-24.6458 -10.34445,0 -20.6889,0 -31.03335,0 l 0,1.0822 0,1.0822 z m 37.15463,0 c 0,7.4938 0,14.9876 0,22.4814 10.34445,0 20.6889,0 31.03335,0 0,-8.2153 0,-16.4305 0,-24.6458 -10.34445,0 -20.6889,0 -31.03335,0 l 0,1.0822 0,1.0822 z m 37.15463,0 c 0,7.4938 0,14.9876 0,22.4814 10.34445,0 20.6889,0 31.03335,0 0,-8.2153 0,-16.4305 0,-24.6458 -10.34445,0 -20.6889,0 -31.03335,0 l 0,1.0822 0,1.0822 z m 37.73378,0 c 10e-6,7.4938 0,14.9876 0,22.4814 10.1507,0 20.3014,0 30.45209,0 0,-8.2153 0,-16.4305 0,-24.6458 -10.15069,0 -20.30139,0 -30.45209,0 l 0,1.0822 0,1.0822 z m 37.15464,0 c 0,7.4938 0,14.9876 0,22.4814 10.34445,0 20.68889,0 31.03335,0 0,-8.2153 0,-16.4305 0,-24.6458 -10.34446,0 -20.6889,0 -31.03335,0 l 0,1.0822 0,1.0822 z m -245.43236,5.0666 c 8.5654,-3.622 9.95855,5.7814 6.9118,10.1837 -4.84899,-1.5625 -16.69978,3.8767 -14.90582,-4.3288 -1.41746,-7.8609 1.93316,-5.5967 7.99402,-5.8549 z m 37.15463,0 c 8.56539,-3.622 9.95855,5.7814 6.9118,10.1837 -4.8498,-1.5624 -16.70099,3.8765 -14.90793,-4.3288 -1.41826,-7.8621 1.93544,-5.5962 7.99613,-5.8549 z m 37.15252,0 c 8.56545,-3.6212 9.96177,5.7796 6.91391,10.1837 -4.84946,-1.5628 -16.70157,3.8771 -14.90793,-4.3288 -1.41746,-7.8609 1.93316,-5.5967 7.99402,-5.8549 z m 112.04305,0 c 8.56539,-3.622 9.95854,5.7814 6.91179,10.1837 -4.84898,-1.5625 -16.69978,3.8767 -14.90581,-4.3288 -1.41746,-7.8609 1.93316,-5.5967 7.99402,-5.8549 z m 37.15463,0 c 8.56539,-3.622 9.95855,5.7814 6.9118,10.1837 -4.84981,-1.5624 -16.701,3.8765 -14.90793,-4.3288 -1.41827,-7.8621 1.93543,-5.5962 7.99613,-5.8549 z m 37.15252,0 c 8.56544,-3.6212 9.96176,5.7796 6.91391,10.1837 -4.84947,-1.5628 -16.70157,3.8771 -14.90793,-4.3288 -1.41746,-7.8609 1.93316,-5.5967 7.99402,-5.8549 z m -148.90599,0.2895 c 8.21094,-3.4796 10.11622,5.2761 6.91404,9.6531 -4.88803,-1.5027 -17.00074,4.1646 -15.08346,-4.0929 -1.35338,-7.7462 2.44861,-5.1787 8.16942,-5.5602 z m 37.15463,0 c 8.40928,-2.4849 8.94024,3.0874 8.27091,9.8942 -5.47346,-0.08 -10.99788,0.1791 -16.44248,-0.2198 -0.20061,-5.486 -1.15418,-12.1674 6.61588,-9.6744 l 1.08222,0 0.47347,0 z m -18.57732,36.8629 c 9.92171,0 19.84342,0 29.76514,0 0.24381,6.5512 1.71378,14.3284 -7.57551,11.3464 -17.31826,0 -34.63651,0 -51.95476,0 -0.24382,-6.5511 -1.71378,-14.3283 7.5755,-11.3464 7.39654,0 14.79309,0 22.18963,0 z"
       id="path3463"
       inkscape:connector-curvature="0" />
    <flowRoot
       xml:space="preserve"
       id="flowRoot3374"
       style="fill:black;stroke:none;stroke-opacity:1;stroke-width:1px;stroke-linejoin:miter;stroke-linecap:butt;fill-opacity:1;font-family:Aharoni;font-style:normal;font-weight:bold;font-size:40px;line-height:125%;letter-spacing:0px;word-spacing:0px;-inkscape-font-specification:'Aharoni Bold';font-stretch:normal;font-variant:normal;"><flowRegion
         id="flowRegion3376"><rect
           id="rect3378"
           width="432.34525"
           height="216.17268"
           x="398.00009"
           y="1207.9257"
           style="font-style:normal;font-variant:normal;font-weight:bold;font-stretch:normal;font-family:Aharoni;-inkscape-font-specification:'Aharoni Bold'" /></flowRegion><flowPara
         id="flowPara3380"></flowPara></flowRoot>    <flowRoot
       xml:space="preserve"
       id="flowRoot3382"
       style="font-style:normal;font-variant:normal;font-weight:normal;font-stretch:condensed;font-size:90px;line-height:125%;font-family:Impact;-inkscape-font-specification:'Impact Condensed';letter-spacing:0px;word-spacing:0px;fill:#ffffff;fill-opacity:1;stroke:none;stroke-width:1px;stroke-linecap:butt;stroke-linejoin:miter;stroke-opacity:1"
       transform="translate(925.29973,-121.2183)"><flowRegion
         id="flowRegion3384"><rect
           id="rect3386"
           width="280.82242"
           height="111.11678"
           x="-527.29962"
           y="1268.5348"
           style="font-style:normal;font-variant:normal;font-weight:normal;font-stretch:condensed;font-size:90px;font-family:Impact;-inkscape-font-specification:'Impact Condensed';fill:#ffffff" /></flowRegion><flowPara
         id="flowPara3388">ELM327</flowPara></flowRoot>  </g>
</svg>
